# xmcd
#
# Track frame offsets:
#	150
#	11130
#	30381
#	47478
#	63125
#	74941
#	91730
#	103601
#	116846
#	130449
#	145980
#	158828
#
# Disc length: 2339 seconds
# Revision: 0
# Processed by: cddbd v1.5.2PL0 Copyright (c) Steve Scherf et al.
# Submitted via: dBpowerAMP V12.0
#
DISCID=a609210c
DTITLE=Lucinda Williams - Lucinda Williams - Original Album [CD1 of 2)
DYEAR=1988
DGENRE=Folk
TTITLE0=I Just Wanted to See You So Bad
TTITLE1=The Night's Too Long
TTITLE2=Abandoned
TTITLE3=Big Red Sun Blues
TTITLE4=Like a Rose
TTITLE5=Changed the Locks
TTITLE6=Passionate Kisses
TTITLE7=Am I Too Blue
TTITLE8=Cresent City
TTITLE9=Side of the Road
TTITLE10=Price to Pay
TTITLE11=I Asked for Water (He Gave Me Gasoline)
EXTD=
EXTT0=
EXTT1=
EXTT2=
EXTT3=
EXTT4=
EXTT5=
EXTT6=
EXTT7=
EXTT8=
EXTT9=
EXTT10=
EXTT11=
PLAYORDER=
